<?xml version="1.0" encoding="utf-8"?>
<!-- Generator: Adobe Illustrator 15.1.0, SVG Export Plug-In  -->
<!DOCTYPE svg PUBLIC "-//W3C//DTD SVG 1.1//EN" "http://www.w3.org/Graphics/SVG/1.1/DTD/svg11.dtd" [
	<!ENTITY ns_flows "http://ns.adobe.com/Flows/1.0/">
]>
<svg version="1.1"
	 xmlns="http://www.w3.org/2000/svg" xmlns:xlink="http://www.w3.org/1999/xlink" xmlns:a="http://ns.adobe.com/AdobeSVGViewerExtensions/3.0/"
	 x="0px" y="0px" width="380px" height="120px" viewBox="-1.6582031 -23.2084961 380 120"
	 enable-background="new -1.6582031 -23.2084961 380 120" xml:space="preserve">
<defs>
</defs>
<path fill="#333333" d="M6.5512695,9.5629883H0V0.8920898h28.8330078c21.6713867,0,35.9858398,13.0068359,35.9858398,35.487793
	c0,22.5776367-14.3144531,35.6831055-35.9858398,35.6831055H13.0024414c-4.534668,0-6.4511719-1.9111328-6.4511719-6.4492188
	V9.5629883z M18.8500977,63.3930664h9.2763672c15.8256836,0,26.2080078-9.4746094,26.2080078-27.0131836
	c0-17.4423828-10.4838867-26.8168945-26.2080078-26.8168945H16.6318359v51.6113281
	C16.6318359,62.5854492,17.4404297,63.3930664,18.8500977,63.3930664z"/>
<path fill="#333333" d="M77.3149414,31.6376953c0-1.5102539-0.8037109-2.2182617-2.2182617-2.2182617h-4.1333008v-8.3652344
	h9.5766602c4.5375977,0,6.4516602,1.9155273,6.4516602,6.4506836v33.9731445c0,1.5126953,0.8066406,2.2167969,2.2192383,2.2167969
	h4.1323242v8.3681641h-9.5756836c-4.534668,0-6.449707-1.9111328-6.449707-6.4492188V31.6376953H77.3149414z M77.515625,0.8920898
	h8.7724609v10.1811523H77.515625V0.8920898z"/>
<path fill="#333333" d="M101.409668,31.4389648c-0.605957-1.515625-1.5107422-2.0166016-3.1269531-2.0166016h-1.0058594v-8.3681641
	h5.0380859c4.5375977,0,6.2519531,1.1098633,7.7651367,5.1435547l10.9882813,29.3339844
	c1.0063477,2.8203125,1.8125,6.6474609,1.8125,6.6474609h0.2045898c0,0,0.8032227-3.8271484,1.8139648-6.6474609
	l10.8823242-29.3339844c1.5117188-4.03125,3.3242188-5.1435547,7.7607422-5.1435547h4.737793v8.3681641h-1.0058594
	c-1.715332,0-2.7231445,0.5039063-3.3251953,2.0166016l-15.5253906,40.6240234h-11.2910156L101.409668,31.4389648z"/>
<path fill="#333333" d="M184.0654297,40.3051758h2.2148438v-0.5029297c0-8.9731445-3.3242188-12.1982422-11.2880859-12.1982422
	c-2.4208984,0-8.3681641,0.6049805-8.3681641,3.9316406v2.925293h-9.171875v-5.0415039
	c0-8.3681641,12.703125-9.5761719,17.6416016-9.5761719c16.5322266,0,20.9697266,8.6708984,20.9697266,19.9609375v21.6738281
	c0,1.5126953,0.8037109,2.2167969,2.2167969,2.2167969h4.1328125v8.3681641h-9.1738281
	c-4.5336914,0-6.3505859-2.21875-6.3505859-5.8466797c0-1.7148438,0.2001953-3.0234375,0.2001953-3.0234375h-0.2001953
	c0,0-4.0307617,10.0771484-16.2299805,10.0771484c-8.7700195,0-17.3398438-5.3398438-17.3398438-15.5195313
	C153.3188477,41.3149414,175.4960938,40.3051758,184.0654297,40.3051758z M172.7773438,65.4086914
	c8.2636719,0,13.6074219-8.6660156,13.6074219-16.2285156v-1.7109375h-2.5205078
	c-7.3579102,0-20.6655273,0.4023438-20.6655273,9.7822266C163.2016602,61.378418,166.3242188,65.4086914,172.7773438,65.4086914z"/>
<path fill="#333333" d="M212.1904297,57.7504883c0,0,6.0458984,7.5566406,15.421875,7.5566406
	c4.7382813,0,8.8701172-2.1171875,8.8701172-6.5566406c0-9.1689453-27.8232422-8.1621094-27.8232422-24.5913086
	c0-9.7841797,8.5664063-14.3183594,18.9560547-14.3183594c6.1455078,0,16.7304688,2.1191406,16.7304688,9.878418v4.8413086
	h-8.7705078v-2.5209961c0-3.0244141-4.5361328-4.3344727-7.6591797-4.3344727c-5.7460938,0-9.4785156,2.0117188-9.4785156,6.0458984
	c0,9.6782227,27.8222656,7.559082,27.8222656,24.5952148c0,9.0712891-8.0673828,14.9179688-18.7470703,14.9179688
	c-13.6142578,0-20.3642578-8.9677734-20.3642578-8.9677734L212.1904297,57.7504883z"/>
<path fill="#333333" d="M281.234375,19.8432617c15.2246094,0,27.5263672,11.1914063,27.5263672,26.6152344
	c0,15.5273438-12.3017578,26.8115234-27.5263672,26.8115234c-15.2177734,0-27.4179688-11.2900391-27.4179688-26.8115234
	C253.8164063,31.034668,266.0166016,19.8432617,281.234375,19.8432617z M281.234375,64.8051758
	c9.6835938,0,17.5410156-7.6611328,17.5410156-18.3466797c0-10.5849609-7.8574219-18.1450195-17.5410156-18.1450195
	c-9.5751953,0-17.4375,7.5620117-17.4375,18.1450195C263.796875,57.144043,271.6591797,64.8051758,281.234375,64.8051758z"/>
<path fill="#333333" d="M320.9619141,28.918457h-6.3583984v-7.8642578h6.3583984v-1.7119141
	c0-16.8344727,12.7929688-18.9536133,19.2460938-18.9536133c2.2197266,0,3.7246094,0.3022461,3.7246094,0.3022461V9.059082
	c0,0-0.9990234-0.2041016-2.5097656-0.2041016c-3.8378906,0-10.6904297,1.2119141-10.6904297,10.6889648v1.5102539h12.0947266
	v7.8642578h-12.0947266v43.1445313h-9.7763672V28.918457H320.9619141z"/>
<path fill="#333333" d="M354.1171875,28.918457h-6.6542969v-7.8642578h6.8535156V7.0424805h9.578125v14.0117188h12.2021484
	v7.8642578h-12.2021484v23.3847656c0,10.1845703,7.0566406,11.4931641,10.7890625,11.4931641
	c1.4130859,0,2.3134766-0.1982422,2.3134766-0.1982422v8.6669922c0,0-1.3115234,0.2001953-3.4228516,0.2001953
	c-6.453125,0-19.4570313-2.0146484-19.4570313-19.0517578V28.918457z"/>
<path fill="#ABBF58" d="M284.7089844,0h12.2919922l-10.5830078,13.7099609h-9.3720703L284.7089844,0z"/>
</svg>
